<?xml version="1.0" encoding="UTF-8"?>
<svg id="Capa_1" data-name="Capa 1" xmlns="http://www.w3.org/2000/svg" viewBox="0 0 264 240">
  <defs>
    <style>
      .cls-1 {
        fill: none;
        stroke: #fff;
        stroke-linecap: round;
        stroke-linejoin: round;
        stroke-width: 8px;
      }

      .cls-2 {
        fill: #0f848f;
      }
    </style>
  </defs>
  <path class="cls-2" d="M190.85,239H49.35c-29.41,0-51.78-26.41-46.95-55.42L26.21,40.77C30.03,17.82,49.89,1,73.15,1h141.49c29.41,0,51.78,26.41,46.95,55.42l-23.8,142.81c-3.83,22.95-23.68,39.77-46.95,39.77Z"/>
  <g>
    <path class="cls-1" d="M132,96.2v-23.8h-23.8"/>
    <path class="cls-1" d="M167.7,96.2h-71.4c-6.57,0-11.9,5.33-11.9,11.9v47.6c0,6.57,5.33,11.9,11.9,11.9h71.4c6.57,0,11.9-5.33,11.9-11.9v-47.6c0-6.57-5.33-11.9-11.9-11.9Z"/>
    <path class="cls-1" d="M72.5,131.9h11.9"/>
    <path class="cls-1" d="M179.6,131.9h11.9"/>
    <path class="cls-1" d="M149.85,125.95v11.9"/>
    <path class="cls-1" d="M114.15,125.95v11.9"/>
  </g>
</svg>